<?xml version="1.0" encoding="UTF-8"?>
<svg version="1.1" viewBox="0 0 1600 900" width="1280" height="1280" xmlns="http://www.w3.org/2000/svg">
<path transform="translate(0)" d="m0 0h1600v900h-1600z"/>
<path transform="translate(771,190)" d="m0 0h35l3 1 24 3 14 3 17 5 21 8 15 8 11 6 9 5 4 4 8 6 6 4v2h2v2l5 2 16 16 6 7v2l4 2 7 9 9 14 6 9 8 17 5 10 5 12 2 6 2 9 4 16 4 31v32l-4 31-4 15-5 19-3 7-8 16-6 7-2-2-1 1h-6v3h-11l-5-1 4-6-10 6-28 1-2-5-1-9-1-13-2-3-2-22-4-6-3-4 8-5 2-4-2-26-4-8-6-4-7-2h-10l-9 4-6 9-1 3v10l6 12 6 5 2 1-1 4-2 3-2 26-1 3v13l-7 4 1 6 1 5-7 2-21 1 1-5-4 1-3 3-1 2-22 1 3-3 9-5v-3l-10 1-1-4v-11l-6-7 1-7 2-1v-6l-3-8-3-9-6-8v-3l9-3 1-9v-7l5-5h6l-4-10 1-2 10 3-1-7-5-5-7-3v-2l3-1 11-1-8-7-3-1h-12l-6 3 1-6 1-4-7 4-3 5-3-1-3 6-12 6-4 6v10l-16-1-4 1 8 7 4 3v2l-11 3-1 1 17 8 5 2 8 1 4 4-6 7-3 14-2 7-1 4-3-1-8-18-7-6h-8v4l9 5 5 8 6 12 5 5 6 3-1 9-2 4h-7l-1 5 3 8 2 4-12-1 1-3h2v-2l-7 2-2 2-5-1-1 1h-5-3l-5 1-28 1h-13l1-2h2v-2h-6l-4 2h-3v2h-3l4-19 2-7 3-1 5 3 2 7 6 5 7-1 4-2 7-8 15-10 1-5-7-3h-9l-7 1-1-1v-11l1-8-6-11v-2l-4-2-1-2v-7l3-9 2-2 2-5 2-7 1-5-2-3 2-9 4-6 3-4 9-18 1-8-5-5-5-1-2 4-3 1-1 10-3 9-2 12-4 13-1 1h-11l-1-1-1-9-8-14v-9l3-1 3 11 4 4 1 7h4l4-10 1-14-1-11 4-10-2-6-1-1-1-12-2-3-3-12-3-5-9-6-7-2-10 1-8 4-6 8-1 3v17l3 8 5 6-6 5-6 3 3-12v-2l-10 4-6 4-10 4-6 9-9 6-3 5-1 10-7 10-2 5-1 14-2 6v19l4 10 7 10 7 9 4 1 1-10h2l1 12-4 7-9 9 1 7 3 4-1 4-4 4 1 9 3 5-6 1-12-1-5-3v2l-6 2h-9l1-7-3 2-1-1-2 2h-2l-1 2-1-4h-4l-3-5-4-8-4-10-5-13-4-18-2-6-3-24v-44l3-24 4-14 3-12 7-20 13-26 3-4 4-7 7-10 3-3 3-5 6-8 21-21h2v-2l5-4h2v-2l9-7 8-6 11-6 8-5 14-7 14-6 11-4 15-4 5-2 17-3z" fill="#FAC953"/>
<path transform="translate(771,190)" d="m0 0h35l3 1 24 3 14 3 17 5 21 8 15 8 11 6 9 5 4 4 8 6 6 4v2h2v2l5 2 16 16 6 7v2l4 2 7 9 9 14 6 9 8 17 5 10 5 12 2 6 2 9 4 16 4 31v32l-4 31-4 15-5 19-3 7-8 16-6 7-2-2-1 1h-6v3l-5-1 6-8 4-12h2l3-10h2l2-9 2-10 4-15h2l1-12 2-21v-33l-3-23-4-20-5-17-6-13-6-14-6-10-6-8-3-5v-3l-3-1-7-9v-2h-2l-6-8-3-2v-2h-2l-5-6-4-2-5-5-11-10-14-9-17-10-8-4-13-6-21-7-29-6-17-2h-30l-18 2-22 4-9 2-8 3-12 4-13 6-16 8-6 4-9 5-5 4h-2l-2 4-11 7-5 5-6 7-8 7-7 9-5 5-5 8h-2v3h-2l-2 5-4 5-9 18-5 11-3 10-4 9-3 11-1 1-2 11-1 3-2 16-1 7v33l1 11 1 2v-46l4-26 6-21 2-6h2l2-6 5-12 6-9 7-12 7-10 9-12h2l1-4 5-5h2l2-4 12-11 4-4h3v-2l4-1v-2l5-3h2v-2h3v-2l16-8 6-1v3l-5 5-4 2-2 4-5 2-1 5-4 6h-2l-2 5-8 14-1 2h-2l-3 11-5 10-4 14-2 6-1 22-1 11 2 12-2 1-1 3 5-3 1 3-9 6-3 5-1 10-7 10-2 5-1 14-2 6v19l4 10 7 10 7 9 4 1 1-10h2l1 12-4 7-9 9 1 7 3 4-1 4-4 4 1 9 3 5-6 1-12-1-5-3v2l-6 2h-9l1-7-3 2-1-1-2 2h-2l-1 2-1-4h-4l-3-5-4-8-4-10-5-13-4-18-2-6-3-24v-44l3-24 4-14 3-12 7-20 13-26 3-4 4-7 7-10 3-3 3-5 6-8 21-21h2v-2l5-4h2v-2l9-7 8-6 11-6 8-5 14-7 14-6 11-4 15-4 5-2 17-3z" fill="#D1812C"/>
<path transform="translate(826,222)" d="m0 0h13l8 3 11 4 9 7 4 5 2 1 5 10 12 9 6 4 14 4 3 2v2l5 1 8 4v2l6 2 4 3v2l4 2 4 4 7 5 7 10 2 2v3l3 1 8 16 2 3 4 16v19l-6 12h-2v2h-2l-1 3-9 4h-3v2l-10-1-5-5v-2l-11-3-7-6-21-10-5-3-3-4h-3l-2 2-6 1-4-4-1 4h2v3l-4-1-8-18-1-7 6-9 8-13-27 2-7-7-10-13-2-1-2 12-4 14-9 4-13 6h-3l3 3 11 7 9 5 1 11v17l9-7 10-9 2-1 10 1 15 4 2 1v2h-7l-2-1v6l-5 5-4 2-3 1h-15l-7-1-6 1-4-3v-6l-6 1-3-1-2-3-2-7-4-4h-5l-2-7-2-5-2-12-1-13v-17l2-5 2-10 2-4h2l2-4 7-11 10-7-1-4-3-6-3-3v-12l4-8 3-3z" fill="#F9D988"/>
<path transform="translate(771,190)" d="m0 0h35l3 1 24 3 14 3 17 5 21 8 15 8 11 6 9 5 4 4 8 6 6 4v2h2v2l5 2 16 16 6 7v2l4 2 7 9 9 14 6 9 8 17 5 10 5 12 2 6 2 9 4 16 4 31v32l-4 31-4 15-5 19-3 7-8 16-6 7-2-2-1 1h-6v3l-5-1 6-8 4-12h2l3-10h2l2-9 2-10 4-15h2l1-12 2-21v-33l-3-23-4-20-5-17-6-13-6-14-6-10-6-8-3-5v-3l-3-1-7-9v-2h-2l-6-8-3-2v-2h-2l-5-6-4-2-5-5-11-10-14-9-17-10-8-4-13-6-21-7-29-6-17-2h-30l-18 2-22 4-9 2-8 3-12 4-13 6-16 8-6 4-9 5-5 4h-2l-2 4-11 7-5 5-6 7-8 7-7 9-5 5-5 8h-2v3h-2l-2 5-4 5-9 18-5 11-3 10-4 9-3 11-1 1-2 11-1 3-2 16-1 7v33l1 11 3 5 5 26 4 14 6 17 7 14v5l-3 2-1-1-2 2h-2l-1 2-1-4h-4l-3-5-4-8-4-10-5-13-4-18-2-6-3-24v-44l3-24 4-14 3-12 7-20 13-26 3-4 4-7 7-10 3-3 3-5 6-8 21-21h2v-2l5-4h2v-2l9-7 8-6 11-6 8-5 14-7 14-6 11-4 15-4 5-2 17-3z" fill="#B69A56"/>
<path transform="translate(771,207)" d="m0 0h23l22 2 2 1v2l-9 2-3 5-5 6-4 4-3 7-7 4-8 2-1 3-7 3-15 8-4 4-5 3h-2l-1 3-10 5-7 8-3 1-2 5-5 6-3 3-3 6-5 2-1 6-2 9-7 1v2h-9l-9 3-5 4-4 6-1 3v17l3 8 5 6-6 5-6 3 3-12v-2l-10 4-6 4-10 4-5 8h-4l-3 1v-5h2l-2-13 1-9 1-22 3-8 3-12 6-13 3-8h2l2-6 9-15h2l2-4 3-7 6-4 7-8 3-1v-3l-12 5-6 3-4 1v2h-3v2l-5 3h-2v2l-4 1v2l-5 3-10 10-5 4-6 7h-2l-1 4-5 5-7 10-6 8-6 11-7 11-4 10-3 6-1-3 8-18 9-17 11-17 8-10 12-14 8-8 11-9 5-5 5-3 12-9h2l1-3 14-6 12-6h2v-2l9-3h3v-2l24-6 25-5z" fill="#E39F33"/>
<path transform="translate(994,364)" d="m0 0h2v2h2l3 7 2 6 3 15 2 13 1 16v14l-1 24-2 12h-2l-1 8-3 9-2 10-2 7h-2l-3 10h-2l-2 9-5 9-2 3h-7l-5-1 4-6-10 6-28 1-2-5-1-9-1-13-2-3-2-22-4-6-3-4 8-5 2-4-2-28 5-1v-2l3-1 3-6 3 1 1-5 6-4h2l2-4 6-5h10l7-3 5-6 5-5 5-12 2-9 1-11z" fill="#E39F33"/>
<path transform="translate(868,606)" d="m0 0 5 1 3 5v2l7 1 5-1 2 7 6 4 4 1v9l-16 8-11 5-15 5-21 6-30 4h-44l-15-2-16-3-21-6-13-5-6-2v-2l-6-1-8-4-13-7-5-3 1-8-3 5-3-1-2-5v-7l1-4 5 1 4 1 1 2 6-2 3 3 4 2 3 2 2-1h10l1 1v5l4 2v8l1-2v-6l-3-4-1-1v-5l3-3h6 3 6l1 14 5 1 3 1 2 9 1 2v9l1 1 1-7v-3-12l1-2h-2l-6-7 2-4 7 5h3l9-3 12 1 1 1 5-5 1 3 4-1v-2l7 1 8 1 7-3 5 2v2h2l1-4 1 3 4-4 3 1 1 11 8 3v-2l3-1 5-9 4-1h2v-2l7 1v1l7 2v2l3-1 3-5 5-2 7-1h5l3 3 1 6 1-2h2z" fill="#A94E28"/>
<path transform="translate(773,202)" d="m0 0h30l17 2 29 6 23 8 11 5 19 10 15 10 11 8 10 9v2l5 2 4 4v2h2l7 8 2 4h2l8 11 2 1 5 9 7 10 7 14 5 11 6 15 5 20 4 27 1 7v33l-1 13h-1v-30l-2-23-3-16-2-10-2-2-1-6h-2v-2h-2l-1 16-5 13-4 8-7 6-5 5-8 1-6-1-1-3-7-2-1-4-6-4-4-5v-4l5-1h6l4 2v-2l12-5 1-2h2v-2h2l3-9 2-3v-21l-4-14-8-14-2-5-2-1-3-5-8-11-9-6-4-4v-2l-10-5v-2l-6-2-7-3v-2l-10-3-8-3-9-6-9-7-4-7v-3l-3-1v-2l-3-1-5-5-8-5-14-4-1-1h-13l-4 2h-3l-1 3-3 3-2 5v17l-4 2v-2l-5-1-3-3 2-7h-3l-1-4-4-4 2-7 10-10 2-4 9-1v-2l-24-2h-23l-19 2-39 9h-3v2l-4 2-8 1v2l-16 8-12 5-4 4-11 8-8 6-8 7h-2l-1 3-8 7-11 12-10 13-14 22-9 19-5 11-6 19-4 17-3 20v46l-2 1-1-3-1-13v-31l2-12 1-11 2-6 1-8 3-8 4-12 3-8 5-13 3-5 7-14 6-8 1-2h2v-3h2l2-5 6-8h2l2-4 11-12h2l2-4 6-5 5-5 10-7 3-3 11-8 8-4 6-4 19-9 14-5 10-3 1-1 37-7z" fill="#EBB655"/>
<path transform="translate(583,363)" d="m0 0 3 4-2 6v10l3 18 2 5 2 10 3 11 5 10v7h5l1 2 1 7 2-17h2v21l4 10 7 10 7 9 4 1 1-10h2l1 12-4 7-9 9 1 7 3 4-1 4-4 4 1 9 3 5-6 1-12-1-5-3v2l-6 2h-9l1-8-3-7-7-16-6-18-5-23-1-6v-30l1-4 2-23 4-18 3-9 2-4h2v-8z" fill="#B3582A"/>
<path transform="translate(872,430)" d="m0 0 4 2 6 8 2 1v12l6 12 6 5 2 1-1 4-2 3-2 26-1 3v13l-7 4 1 6 1 5-7 2-21 1 1-5-4 1-3 3-1 2-22 1 3-3 9-5v-3l-10 1-1-4v-11l-6-7 1-7 2-1v-6l-2-6h2l3 3-3-4v-3l4 2v3l5 1 1-3h11l5 2h2l1-2 1 4h4l1 2v7l1 1-1-19-22-14v-2l19-8 5-2 6-24z" fill="#E19E34"/>
<path transform="translate(808,664)" d="m0 0h12l7 3 5 5 3 6v9l-4 9-2 4 3 6v11l-3 5-3 2h-17l-1-3-1-22-1-9-1-1-1 5v27l-1 1h-8l-2-1v-3h-2l-1 4h-13l-1-1v-8l-5-1-2 4-6 5-8 1-8-4-6-8-3-7v-20l6-9 3-2h12l8 5 2 4h9l1-10 4-1 7 2 3 7 1-6h9l1 1 1-9z" fill="#CB100F"/>
<path transform="translate(654,608)" d="m0 0 5 1 4 1 1 2 6-2 3 3 4 2 3 2 2-1h10l1 1v5l4 2v8l1-2v-6l-3-4-1-1v-5l3-3h6 3 6l1 14 5 1 3 1 2 9 1 2v9l1 1 1-4 3-2 16 4 6 1 17 2h37l22-3 28-7 18-7 17-8 1-3 5 4 4 1v9l-16 8-11 5-15 5-21 6-30 4h-44l-15-2-16-3-21-6-13-5-6-2v-2l-6-1-8-4-13-7-5-3 1-8-3 5-3-1-2-5v-7z" fill="#B05529"/>
<path transform="translate(771,190)" d="m0 0h35l3 1 24 3 14 3 17 5 21 8 15 8 11 6 9 5 4 4 8 6 6 4v2h2v2l5 2 16 16 6 7v2l4 2 7 9 9 14 6 9 8 17 5 10 5 12 2 6 2 9 4 16 4 31v32l-4 31-4 15-5 19-3 7-8 16-6 7-2-4h2l2-5 8-18 5-15 4-16 4-19 2-33v-10l-3-31-4-19-3-10-6-17-8-18-10-18-10-14-4-6v-2l-4-2-4-6-19-19-4-3v-2l-5-2-7-6-11-8-3-1v-2l-5-2-25-13-12-5-18-6-16-4-26-4-10-1h-24l-25 2-32 7-34 13-5 3-15 8-3 2h-3v2l-9 6-18 14-6 5-5 6h-2l-2 4-5 5-8 9-3 5h-2l-2 5-7 10-12 21-7 15-6 15-6 22-5 31-1 9v24l1 15 4 21 4 17 7 21 7 14 4 6v5l-2-1v-3h-4l-3-5-4-8-4-10-5-13-4-18-2-6-3-24v-44l3-24 4-14 3-12 7-20 13-26 3-4 4-7 7-10 3-3 3-5 6-8 21-21h2v-2l5-4h2v-2l9-7 8-6 11-6 8-5 14-7 14-6 11-4 15-4 5-2 17-3z" fill="#AD5229"/>
<path transform="translate(795,234)" d="m0 0 2 1v2l3 1v4h3v5l-1 1 2 2-1 4h-2l-1 3-10 6-8 10-5 2-10-1 1-8h-3v5l-4 5-7 3-2 4-4 2h-2l-4 6-6 4-4 11-2 6-3 4-2 15v9l-1 3-5 1 1 2 10 1h8l-1 4-7 10-5 9 3 9 1 10-3 9-2 12-4 13-1 1h-11l-1-1-1-9-8-14v-9l3-1 3 11 4 4 1 7h4l4-10 1-14-1-11 4-10-2-6-1-1-1-12-2-3-3-12-3-5-9-6-4-2v-2l-2-1h9l1-9 2-6 5-3 4-8 5-5 4-6 8-7 5-5 7-3 4-4 6-2 2-4 15-8 7-3 3-3 10-4z" fill="#F8BF40"/>
<path transform="translate(1e3 407)" d="m0 0 2 3 1 4 1 13 1 3v22l-2 21-4 15-4 16-1 3h-2l-3 10h-2l-2 9-5 9-2 3h-7l-5-1 4-6-10 6-28 1-2-5v-6l2 2 2-7h2l2-4 5-5 6-5 7-9 3-6 4-4 5-9h2l20-40 2-11 3-7 2-8z" fill="#D1822C"/>
<path transform="translate(620,293)" d="m0 0 3 1-1 7-5 14-3 5-4 20-1 8v24l3 16 2 18 2-4 3 4-6 12-1 14-2 4h-2l-1 21-2 1-1-14-3 1-2-1-2-9-4-8-3-11-6-26-1-7v-10l2-6-2-3-1 3-1 6-2 1-3 10-3 11-2 9-2 23-1 4v22l-2 3-1-10v-26l2-14 3-14 1-7 2-7 8-23 4-9 8-16 5-9h2l1-4 2-4 3-3 1-3 3-3h2l2-5 5-4z" fill="#C2682B"/>
<path transform="translate(730,468)" d="m0 0 4 2v2l3 1 5 7v2l4 2 2 3h18l8-1 8 16 5 5 6 3-1 9-2 4h-7l-1 5 3 8 2 4-12-1 1-3h2v-2l-7 2-2 2-5-1-1 1h-5-3l-5 1-28 1h-13l1-2h2v-2h-6l-4 2h-3v2h-3l4-19 2-7 3-1 5 3 2 7 6 5 7-1 4-2 7-8 15-10 1-5-7-3h-9l-7 1-1-1v-11l1-8-2-5h2v-6z" fill="#B22E25"/>
<path transform="translate(729,414)" d="m0 0 2 4 1-2v3h4l4 7v2l3 1 5 10 10 9 5 3h3l17 8 5 2 8 1 4 4-6 7-3 14-2 7-1 4-3-1-8-18-7-6h-8v4l9 5 2 2v3l-7 1h-18l-4-5-4-4-4-6-4-4h-2l-1 6-3-1-3-5v-2l-4-2-1-2v-7l3-9 2-2 2-5 2-7 1-5-2-3 2-9z" fill="#E29F35"/>
<path transform="translate(833,296)" d="m0 0 3 1 8 10 8 9 15-1h12l-2 5-10 16-1 4 5 13 4 9v2l-10-2-12-3h-6l-11 9-8 7h-2l-2-28-11-6-11-7v-2l10-4 12-5 2-1 5-18z" fill="#C36A2B"/>
<path transform="translate(826,222)" d="m0 0h13v1l-12 2-7 4-1 9 4 9 6 5 3 3 1 7-3 5-5 1-2 4h-3l-2 4-6 10-4 5-2 12v18l3 4v3l-4 4h-3l3 3 11 7 9 5 1 11v17l9-7 10-9 2-1 10 1 15 4 2 1v2h-7l-2-1v6l-5 5-4 2-3 1h-15l-7-1-6 1-4-3v-6l-6 1-3-1-2-3-2-7-4-4h-5l-2-7-2-5-2-12-1-13v-17l2-5 2-10 2-4h2l2-4 7-11 10-7-1-4-3-6-3-3v-12l4-8 3-3z" fill="#FCD46D"/>
<path transform="translate(757,612)" d="m0 0 2 4v3l3 1 1 2 2 1 4 1 7 1 8 3 12 1 4 2h3v2l5-1v2h11l1 1 19 3 1-1h6v3l-13 4-6 3-22 3h-37l-17-2-6-1-17-4-2 1 1-4-1-2v-12l1-2h-2l-6-7 2-4 7 5h3l9-3 12 1 1 1z" fill="#9C4426"/>
<path transform="translate(682,665)" d="m0 0 9 1 8 4 6 7 2 6v10l-3 6 1 4 6 10 2-16 2-29 12 3 3 9 6 29 1 12-1 1h-10l-1-11-1-2-1 12h-9l-3-1v-5l-7 6h-2l-4-10-1 9h-10v-15l-1-17-2-3-2-14z" fill="#F0E414"/>
<path transform="translate(573,454)" d="m0 0h3l7 13 4 8 3 3 4 8 6 7 3 5 7 10 4 5v2l4 2 2 4 2 1v8l4 8-6 1-12-1-5-3v2l-6 2h-9l1-8-3-7-7-16v-7l-5-21-1-2-1-21z" fill="#9B4326"/>
<path transform="translate(872,430)" d="m0 0 4 2 6 8 2 1v12l6 12 6 5 2 1-1 4-2 3-2 15h-7l-8 7-11 9h-2l-1-22-2-6-18-11-3-2v-2l19-8 5-2 6-24z" fill="#B33025"/>
<path transform="translate(892,661)" d="m0 0 13 1-4 16-4 21 9-2-1 17-1 4-13 3h-7l-1-3-3 2-18 1 1-25 3-24 2-7h13l-1 10-4 19-1 7 10-2 1-13 3-17z" fill="#C81411"/>
<path transform="translate(877,336)" d="m0 0h10l9 4 8 8 7 6 3 5 7 5 16 8 13 5 10 1 10-4 3-6 3-18h1v18l-6 12h-2v2h-2l-1 3-9 4h-3v2l-10-1-5-5v-2l-11-3-7-6-21-10-5-3-3-4h-3l-2 2-6 1-4-4-1 4h2v3l-4-1-5-12 2-6 1-2-3 1-1-3 2-3 4 1z" fill="#FCD46D"/>
<path transform="translate(890,621)" d="m0 0 6 4 4 1-1 5-16 8-13 5-11 4-16 5-23 4-13 2h-42l-25-4-14-3-2-1v-2l9 1 7 2 23 3 15 1h20l19-2-19 1h-30l-5-1-16-1-20-5-1-4 3-2 16 4 6 1 17 2h37l22-3 28-7 18-7 17-8z" fill="#B89C55"/>
<path transform="translate(620,293)" d="m0 0 3 1-1 7-5 14-3 5-4 20-1 8v24l3 16 2 18 2-4 3 4-6 12-1 14-3 1-1-7-2-7-2-11-4-13-2-15-1-33 2-8 1-10 1-2-4 1-8 15-3 6-1-3 8-16 5-9h2l1-4 2-4 3-3 1-3 3-3h2l2-5 5-4z" fill="#C6742D"/>
<path transform="translate(573,423)" d="m0 0h3l4 13 8 17 10 14 6 12 5 5 5 8 2 2 1 3 4 1 2 6v6l4 6-1 4-3 2-4-1-3-5-5-5-6-9-5-6-4-7-5-6-2-7-3-1-4-8-6-11v-2h-3v10l-3 1v-29l1-10z" fill="#A94E28"/>
<path transform="translate(743,391)" d="m0 0h4l-1 5v3l4 7 1 5 8 7 1 3 4 2 4 4 5 1 2-1 1 4h-7l11 2v1h-10l-4 1 8 7 4 3v2l-11 3h-3l-1 2-8-6-8-7-5-10-4-4-2-6-7-1 2-7 4-5 6-12z" fill="#F8BF40"/>
<path transform="translate(851,227)" d="m0 0 5 1 10 7 5 6 2 1 5 10 12 9 6 4 14 4 3 2v2l5 1 8 4v2l6 2 4 3v2l4 2 4 4 7 5 5 9-3-1-7-8-10-8-10-5-12-3-14-1h-7l-12-5-9-5-5-5-3-4v-4h2l1-11-2-7-4-6-10-6z" fill="#FDD56E"/>
<path transform="translate(814,329)" d="m0 0 1 3 2 1v2l5 2v2l10 2 4 2h24l3-3 4 4 8 18v2l-10-2-12-3h-6l-11 9-8 7h-2l-2-28-11-6-6-4-1-5z" fill="#B33025"/>
<path transform="translate(996,473)" d="m0 0h3l1 7-3 19-6 18h-2l-2 9-5 9-2 3h-7l-5-1 4-6-10 6-4-1 2-9 3-5h2l2-5 6-7 7-9 4-7h2v-2h2l1-6h2l2-9z" fill="#C7752D"/>
<path transform="translate(655,650)" d="m0 0 4 1 6 4 9 9 6 10 5 15v8l-2 10-6 9-7 5h-3v-21l-1-13-1-4-3-2-6-25z" fill="#EDE013"/>
<path transform="translate(681,499)" d="m0 0 11 1 4 3 1 7-4 14-5 15-5-1-9-2-5 1h-7l-2-2-11-3-4-5 3-2h11l10-6 6-9 4-9z" fill="#C1672B"/>
<path transform="translate(845,667)" d="m0 0 12 2 3 42 1 10-2 1h-8l-1-1-1-13h-2v13h-11l-1-1 1-14 6-29z" fill="#C81411"/>
<path transform="translate(747,672)" d="m0 0h12l7 4 2 6-6 4-8 1-2 3v7l2 4 9 2 3 5 4 3-1 5-6 5-8 1-8-4-6-8-3-7v-20l6-9z" fill="#F6EC11"/>
<path transform="translate(966,276)" d="m0 0 4 1 10 14 9 14 9 16 4 9 8 20 6 21v4h2l2 11 3 23v32l-4 31-4 15-5 19-3 7-8 16-6 7-2-4h2l2-5 8-18 5-15 4-16 4-19 2-33v-10l-3-31-4-19-3-10-6-17-8-18-10-18-10-14-4-6v-2l-4-2z" fill="#A94E28"/>
<path transform="translate(715,668)" d="m0 0 12 3 3 9 6 29 1 12-1 1h-10l-1-11-1-2-1 12h-9l-2-1v-11z" fill="#F2E613"/>
<path transform="translate(934,396)" d="m0 0 8 1 5 4 3 2v4l7 1 1 5-7 6-3 3-6 4-1 4h-3l-3 6-2 1v9l-2-4 1-4h-3l-1 2-6-8-3-3 3-3v-8l2-2 6-2 1-2-7-1-2-7v-3-3z" fill="#F8BF40"/>
<path transform="translate(778,676)" d="m0 0h1l2 7 5 4 3 6v9l-3 6-5 4-3 1v7h11l2-5 2 1v2h-2l-1 4h-13l-1-1v-8l-5-1-1 2v-3l-4-2-3-3v-3h-7l-4-4-1-2v-7l3-4 8-1 4-3h2l-2-5 3 2v2h9z" fill="#C4702C"/>
<path transform="translate(780,670)" d="m0 0 10 2 2 6v6h2l1-10h7l1 1 1 46-1 1h-8l-2-1-1-5-3 5h-11l-1-1v-7l8-5 3-6v-9l-5-8-4-3v-11z" fill="#CD0F0E"/>
<path transform="translate(730,347)" d="m0 0h8l-1 4-7 10-5 9 3 9 1 10-3 9-2 12-4 13-1 1h-11l-1-1-1-9-8-14v-9l3-1 3 11 4 4 1 7h4l4-10 1-14-1-11 4-10-2-6-1-1v-12z" fill="#B13926"/>
<path transform="translate(868,665)" d="m0 0h13l-1 10-4 19-1 7 8-1 1 3-1 15-3 2-18 1 1-25 3-24z" fill="#C91310"/>
<path transform="translate(829,462)" d="m0 0 2 1v2l9 1v-2l5-2v3l-4 1v2l5 2 17 11 1 1v19l-2-1v-9h-4l-2-2-3 1-4-2h-11l-1 2-5-1-2-4-2-1 3 5v2l-3-1v-2h-2l-4-11-6-8v-3l6-2h5z" fill="#F6BD41"/>
<path transform="translate(774,490)" d="m0 0h2l6 12 5 5 6 3-1 9-2 4h-7l-1 5 3 8 2 4-12-1 1-3h2v-2l-5 1v-2h-2l-8-18-1-6 10-16z" fill="#DF9B34"/>
<path transform="translate(833,296)" d="m0 0 3 1 8 10 8 9 15-1h12l-2 5-4 5-5-1-10 5-15 1-13-3v-2h-2v-2l-2-1 5-18z" fill="#E19F35"/>
<path transform="translate(654,608)" d="m0 0 5 1 4 1 1 2 6-2 3 3 4 2 3 2 2-1h10l1 1v5l4 2-1 15-2 1-10-4-17-9-6-3v-4l-3 5-3-1-2-5v-7z" fill="#B69954"/>
<path transform="translate(620,277)" d="m0 0 3 1-2 4-9 10-7 10-12 19-9 19-5 11-6 19-4 17-3 20v46l-2 1-1-3-1-13v-31l2-12 1-11 2-6 1-8 3-8 4-12 3-8 5-13 3-5 7-14 6-8 1-2h2v-3h2l2-5 6-8z" fill="#E8B555"/>
<path transform="translate(853,200)" d="m0 0 9 1 13 5 10 4 15 8 11 6 9 5 4 4 8 6 6 4v2h2v2l5 2 16 16 6 7v2l4 2 7 9 9 14 6 9 8 17 5 10 5 12 2 6 2 9 2 7v6l-2-4-7-24-7-17-8-16-5-9-7-11-10-14-2-3-5-1-9-10-12-12-4-3v-2l-5-2-7-6-11-8-3-1v-2l-5-2-9-5-3-5-23-10-9-3-8-3z" fill="#AC5129"/>
<path transform="translate(740,209)" d="m0 0h6v1l-14 3h-3v2l-16 4h-3v2l-4 2-8 1v2l-16 8-12 5-4 4-11 8-8 6-8 7h-2l-1 3-8 7-6 5-2-4 7-7h2l2-4 6-5 5-5 10-7 3-3 11-8 8-4 6-4 19-9 14-5 10-3 1-1h11z" fill="#EFBE5B"/>
<path transform="translate(561,363)" d="m0 0 1 4-3 11-5 36v24l1 15 4 21 4 17 7 21 7 14 4 6v5l-2-1v-3h-4l-3-5-4-8-4-10-5-13-4-18-2-6-1-8-1-25v-29l2-22 5-21z" fill="#AB5028"/>
<path transform="translate(899,629)" d="m0 0h1v6l-16 8-11 5-15 5-21 6-30 4h-44l-15-2-16-3-1-2 9 1 20 3 13 1h31l4-1-1-2 36-6 25-8 10-4 16-8 5-1z" fill="#B0552A"/>
<path transform="translate(697,611)" d="m0 0h6 3 6l1 14 5 1 3 1 2 9 1 4-3 1-11-4-12-5v-8l-3-4-1-1v-5z" fill="#9C4426"/>
<path transform="translate(681,499)" d="m0 0 11 1 4 3 1 7-4 14-2 5h-2l-1 2-4-5-2-2-5-3-4-3v-5l4-9z" fill="#C5732C"/>
<path transform="translate(699,390)" d="m0 0h2l3 11 4 4 1 7h4l4-10 1-9h5l3 2-2 15-4 13-1 1h-11l-1-1-1-9-8-14v-9z" fill="#E0A039"/>
<path transform="translate(703,513)" d="m0 0 6 2 4 9 5 4 5 1v10l-1 1h-13l1-2h2v-2h-6l-4 2h-3v2h-3l4-19 2-7z" fill="#CA792C"/>
<path transform="translate(966,276)" d="m0 0 4 1 10 14 9 14 9 16 4 9 8 20 7 25 2 16 1 6v17l-2 2-3-31-4-19-3-10-6-17-8-18-10-18-10-14-4-6v-2l-4-2z" fill="#AD5229"/>
<path transform="translate(766,677)" d="m0 0 3 2 1 6h2l1 7-4 1-1 3h-4v6l6-2-1 5-1 3 3 2-1 4v-3l-4-2-3-3v-3h-7l-4-4-1-2v-7l3-4 8-1 4-3h2z" fill="#D4872F"/>
<path transform="translate(833,296)" d="m0 0 3 1 8 10 8 9h10v1l-7 1-2 2-12 1-9-4-2-2-1-3z" fill="#B8A15A"/>
<path transform="translate(602,313)" d="m0 0 1 2-3 6h-2l-2 6-9 16-4 11-4 9-5 15-6 28-2 14h-1v-13l4-26 6-21 2-6h2l2-6 5-12 6-9 7-11z" fill="#D4852C"/>
<path transform="translate(576,318)" d="m0 0 1 3-4 8 2-1-3 9-6 15-3 10-4 6-5 21-2 22v46h-1l-1-8v-44l3-24 4-14 3-12 7-20 5-10z" fill="#A34A27"/>
<path transform="translate(909,610)" d="m0 0h10v2h2v-2l2 1-3 11-4 4-9 5-5 2-1-10 4-8h2l1-4z" fill="#B49452"/>
<path transform="translate(1016,459)" d="m0 0h1v22l-7 25-3 7-8 16-6 7-2-4h2l2-5 8-18 5-15 4-16z" fill="#AD5229"/>
<path transform="translate(579,360)" d="m0 0h1l2 7-1 6-2 1-3 10-3 11-2 9-2 23-1 4v22l-2 3-1-10v-26l2-14 3-14 1-7 2-7z" fill="#C46C2B"/>
<path transform="translate(711,202)" d="m0 0 4 1-16 6-11 5-3 1-2 3h-2v2l-15 8-3 2h-3v2l-9 6-6 5h-7l5-5 10-8 11-6 8-5 14-7 14-6z" fill="#AC5128"/>
<path transform="translate(824,610)" d="m0 0 7 1v1l7 2v3h4l1 5-5 2-5-1-8 1-2-1-4 1-3-5 2-6 4-1h2z" fill="#B1572B"/>
<path transform="translate(697,632)" d="m0 0 6 1 10 4 9 3h2v7l-1 3-10-2-14-5v-2l10 1-9-2h-2z" fill="#B59A56"/>
<path transform="translate(668,610)" d="m0 0 4 2 5 3 3 2 2-1h10l1 1v5l4 2-1 7-7-3-5-2v-2l-5-1-2-1v-2l-4-1-3-1v-2l-5-1-1-3z" fill="#9E4626"/>
<path transform="translate(771,190)" d="m0 0h35l3 1 24 3 14 3 6 2v1l-11-1-6-2-20-3-15-1h-30l-20 2-16 3-15 4h-5l3-2 13-4 17-3z" fill="#9B4326"/>
<path transform="translate(552,457)" d="m0 0h1l3 15 4 19 2 5 2-2 6 18 7 14 4 6v5l-2-1v-3h-4l-3-5-4-8-4-10-5-13-4-18-2-6z" fill="#AD5229"/>
<path transform="translate(724,649)" d="m0 0 9 1 7 2 23 3 15 1h20l13-1h10l-1 2-13 2h-42l-25-4-14-3-2-1z" fill="#B49F5B"/>
<path transform="translate(868,606)" d="m0 0 5 1 3 5v2l7 1 5-1-2 4-2 2-2-1 1 3-4 1-5-1-1 3h-5-3v-9l1-2h2z" fill="#B0562A"/>
<path transform="translate(896,605)" d="m0 0 10 4-7 14h-4l-4-8-1-3-10 1v-6l2-1 8 1z" fill="#A85229"/>
<path transform="translate(812,525)" d="m0 0 2 2v3l7 2-1 8h-25l-2-8 6 2 9-1 2-6z" fill="#DD9A38"/>
<path transform="translate(751,194)" d="m0 0h26v1l-25 2-32 7-34 13-2 2-3-1 4-4 9-4 17-6 9-3 18-5z" fill="#AE5329"/>
<path transform="translate(805,206)" d="m0 0h9l26 4 23 7 12 5 16 8 13 7 19 13v2l-5-2-14-10-22-12-17-7-25-8-20-4-15-2z" fill="#FCD570"/>
<path transform="translate(662,623)" d="m0 0 1 2 4 1 23 12 5 1 1-3h2l1 10-2 1-5-2v-2l-6-1-8-4-13-7-5-3v-4z" fill="#A44B27"/>
<path transform="translate(865,648)" d="m0 0 4 1-11 4-21 6-30 4h-44l-15-2-16-3-1-2 9 1 20 3 13 1h31l26-3 6-2 21-5z" fill="#9B4326"/>
<path transform="translate(722,370)" d="m0 0 1 2h2l4 11v6l-2 8-1-2-8-2-1-16h3v-5z" fill="#B13525"/>
<path transform="translate(775,457)" d="m0 0 6 1 7 3 8 1 4 4-6 7-3 12h-2v-8l1-5-2-4-5-2-1-1-6-1 1-3-3-1z" fill="#ECB343"/>
<path transform="translate(967,274)" d="m0 0 4 2 7 9 9 14 6 9 8 17 5 10 5 12 2 6 2 9 2 7v6l-2-4-7-24-7-17-8-16-5-9-7-11-10-14-4-4z" fill="#9B4326"/>
<path transform="translate(649,249)" d="m0 0 1 4-6 7-5 4h-2l-1 3-8 7-6 5-2-4 7-7h2l2-4 6-5 5-5z" fill="#EDBA58"/>
<path transform="translate(914,523)" d="m0 0h1l1 11-1 2-9 1h-9l1-6 1-3 8-2z" fill="#D89736"/>
<path transform="translate(744,530)" d="m0 0 9 1 9 2 1 5h-5-3l-5 1h-14l2-4z" fill="#D69034"/>
<path transform="translate(681,499)" d="m0 0 11 1 4 3 1 7-2 7h-2v-5h-3l-2-3-6-3h-4l1-5z" fill="#CE7E2C"/>
<path transform="translate(725,645)" d="m0 0 2 1 3 2 17 4 16 1 5 1h37l20-1-4 2-23 2h-20l-32-3-9-2-12-3z" fill="#C7752D"/>
<path transform="translate(1017,375)" d="m0 0 2 3 4 31v32l-2 13h-1v-40l-1-17-2-11z" fill="#9B4326"/>
<path transform="translate(983,520)" d="m0 0 2 4-1 8-4 6h-7l-5-1 4-6-2-1 4-1v-2h3l3-6z" fill="#C26A2B"/>
<path transform="translate(663,523)" d="m0 0 3 1-5 4-5 1 3 3 5 2h16l5 2-1 3-7-3-15 1-2-2-11-3-4-5 3-2h11z" fill="#AF562A"/>
<path transform="translate(703,513)" d="m0 0 6 2 4 9 1 2h-2l-1 4h-4l-1-3-4-2-2 4v-8l2-7z" fill="#CC7D2D"/>
<path transform="translate(771,192)" d="m0 0h30l23 2 2 1v2l-15-1-10-1h-45l2-2z" fill="#AC5128"/>
<path transform="translate(894,630)" d="m0 0m-1 1v3l-10 5-13 5-11 4-16 5-11 1 3-2 10-3 17-5 16-6z" fill="#B49F5B"/>
<path transform="translate(856,607)" d="m0 0h5l3 3v13l-6 2-1-1-2 2v-18z" fill="#B0582B"/>
<path transform="translate(899,629)" d="m0 0h1v6l-16 8-11 5-4-1 5-2-1-3 18-8 6-3h2z" fill="#AE5329"/>
<path transform="translate(599,286)" d="m0 0v3l-4 6-11 18-8 15-4 2 2-6 8-15 7-11 8-11z" fill="#AE5329"/>
<path transform="translate(702,520)" d="m0 0h1v6l4 1v3h3v3l5 2-3 3v-2h-6l-4 2h-3v2h-3l3-14 2-1z" fill="#BE6C2C"/>
<path transform="translate(852,607)" d="m0 0 2 2v9l-3 5-5-1-3-6v-5l4-3z" fill="#AE5529"/>
<path transform="translate(676,233)" d="m0 0 3 1-9 5-4 4-11 8-2 2h-5l5-8 6-4 7-5 7-1z" fill="#F1C05D"/>
<path transform="translate(561,363)" d="m0 0 1 4-3 11-5 36-2-3v-12l2-13 4-18z" fill="#AE5329"/>
<path transform="translate(557,367)" d="m0 0h1l-1 11-3 11-2 22v46h-1l-1-8v-44l3-24z" fill="#9B4326"/>
<path transform="translate(711,202)" d="m0 0 4 1-16 6-11 5-17 8-6 4-7 4-1 2-7 2 3-4 11-6 8-5 14-7 14-6z" fill="#9B4326"/>
<path transform="translate(654,608)" d="m0 0 5 1 4 1 1 4-1 3h-2l-1 5-3 3-2-1-2-5v-7z" fill="#B07B40"/>
<path transform="translate(703,443)" d="m0 0 10 2 1 4-2 10-5-2-3-5z" fill="#DA9C3D"/>
<path transform="translate(806,610)" d="m0 0h10l-1 4-6 8-5-1-1-1v-7z" fill="#B0582B"/>
<path transform="translate(552,457)" d="m0 0h1l3 15 4 19 8 24 3 5-1 3-4-7-7-19-4-18-2-6z" fill="#9B4326"/>
<path transform="translate(636,243)" d="m0 0h2l-1 3-11 9-5 5-5 6-5 5-7 8-5 6-1-3 6-7 7-8 16-16h2v-2l5-4h2z" fill="#9B4326"/>
<path transform="translate(924,234)" d="m0 0 5 2 6 5 3 2v2h2v2l5 2 16 16 6 7-1 2-5-5-1-3h-2l-7-8-7-6v-2l-5-2v-2l-3-1v-2l-5-2-7-6z" fill="#9B4326"/>
<path transform="translate(917,618)" d="m0 0h3l-1 5-3 3-9 5-5 2 1-5 11-8z" fill="#A54C27"/>
<path transform="translate(570,401)" d="m0 0 1 3-2 23-1 4v22l-2 3v-30l1-12 2-12z" fill="#C3682B"/>
<path transform="translate(718,393)" d="m0 0h5l3 2-2 10-2 3-4-2z" fill="#E8B24A"/>
<path transform="translate(754,686)" d="m0 0 7 1v3h-6v9l6 1-1 3-6-1-3-5v-7z"/>
<path transform="translate(1016,475)" d="m0 0h1l-1 10-6 21-3 7-6 12-1-3 4-8 5-13 4-15 1-7z" fill="#9B4326"/>
<path transform="translate(853,200)" d="m0 0 9 1 13 5 10 4 15 8-3 1-10-5-14-6-9-3-8-3z" fill="#9B4326"/>
<path transform="translate(802,659)" d="m0 0h8l-2 2-4 1h-31l-7-1v-1z" fill="#AA4F28"/>
<path transform="translate(871,639)" d="m0 0 3 1-14 6-20 5-5 2h-9l4-2 17-4 18-6z" fill="#C7752D"/>
<path transform="translate(667,361)" d="m0 0 5 1 4 5-6 5-6 3 3-12z" fill="#AE3726"/>
<path transform="translate(833,296)" d="m0 0 3 1 7 9-2 5h-2v-3h-4l-1-6h-2z" fill="#E4B355"/>
<path transform="translate(573,478)" d="m0 0 2 2 5 21-1 4-2-3-5-16v-7z" fill="#AD5328"/>
<path transform="translate(633,477)" d="m0 0h2l1 12-3 5-4 1-2 1 1-5h-2v-2l6-1z" fill="#BA632C"/>
<path transform="translate(699,390)" d="m0 0h2l3 11 4 4-2 4-2-4-4-1-2-4v-9z" fill="#E2AC48"/>
<path transform="translate(990,310)" d="m0 0h2l12 24-1 4-2-4-2-1-4-10-5-10z" fill="#AB5028"/>
<path transform="translate(728,488)" d="m0 0h1l1 10 4-1h15l5 4 1 5-5 5-3-1 5-4-1-5-6-2h-9l-7 1-1-1z" fill="#9B4326"/>
<path transform="translate(854,608)" d="m0 0h1v13l-4 4-3 1-5-4-1-5-4-1 3-1 2-3 4 10h4l2-6v-7z" fill="#80371F"/>
<path transform="translate(699,641)" d="m0 0 8 1 15 5 1 3-10-2-14-5z" fill="#B49F5B"/>
<path transform="translate(1e3 509)" d="m0 0 1 4-3 6-1 9-8 8-1-4h2l2-5z" fill="#B1562A"/>
<path transform="translate(925,254)" d="m0 0 6 2 11 11 5 4 6 7v2l-3-1-7-8-10-9v-2l-4-2z" fill="#FBD77A"/>
<path transform="translate(820,656)" d="m0 0h7l4 2-1 1-16 2h-6l-1-3z" fill="#B2572A"/>
<path transform="translate(775,413)" d="m0 0h2l1 7h2l2-4v15l-5 1v-3h2v-6h-4z" fill="#F9C040"/>
<path transform="translate(775,691)" d="m0 0h2l4 5-1 6-5-1h-3v-5l-1-3h3z" fill="#CD1010"/>
<path transform="translate(700,639)" d="m0 0 9 2 2 2-7-1-5-1v2l6 1 8 3-2 2-7-1-5-2-1-6z" fill="#B65D2A"/>
<path transform="translate(903,609)" d="m0 0 3 1-7 13h-4l-2-4 4 1 1-2-2-1 2-4h2v-2z" fill="#B06031"/>
<path transform="translate(917,613)" d="m0 0h2v2l-5 4-6 4h-3v2l-2 1-2 3v-6l4-8h1v6l4-3h3l2-4z" fill="#AC6835"/>
<path transform="translate(568,401)" d="m0 0h1v10l-1 3-2 32h-1v-26l2-14z" fill="#C8762C"/>
<path transform="translate(769,439)" d="m0 0 7 4 2 4-13 3 1-3 2 1 1-3-1-3 1-1z" fill="#DEAA4D"/>
<path transform="translate(597,285)" d="m0 0v3l-7 10-10 16-3 4 1-5 5-8 4-7 7-10z" fill="#9B4326"/>
<path transform="translate(614,266)" d="m0 0 2 1-6 9-5 5-3 5-4 1 2-5 4-4 9-11z" fill="#AC5128"/>
<path transform="translate(919,613)" d="m0 0h2v5l-7 3-11 8-1-3 3-1v-2l7-4h2l1-2 4-2z" fill="#B39C59"/>
<path transform="translate(794,673)" d="m0 0h9l1 1 2 12 1 4-2-1-1 5h-1l-1-19-7-1v8l-1 2h-2z" fill="#A03D25"/>
<path transform="translate(924,606)" d="m0 0h2v6l1-6 3 1-1 8-5 5h-2z" fill="#A6532C"/>
<path transform="translate(699,646)" d="m0 0 5 1 22 7 5 1v1l-11-1-20-7z" fill="#9B4326"/>
<path transform="translate(571,523)" d="m0 0 7 4 3 5v5l-2-1v-3h-4l-3-5z" fill="#A34A27"/>
<path transform="translate(805,206)" d="m0 0h9l26 4v2h-7l-13-3-15-2z" fill="#FCD56E"/>
<path transform="translate(895,635)" d="m0 0 2 1-8 5-10 4-6 3-4-1 11-5z" fill="#9B4326"/>
<path transform="translate(656,614)" d="m0 0 1 2h2l1 6-3 3-2-1-2-5 1-4z" fill="#AE7B44"/>
<path transform="translate(648,234)" d="m0 0 3 1-2 5-4 3h-7l5-5z" fill="#A44B27"/>
<path transform="translate(900,219)" d="m0 0 4 1 16 9 4 5-6-2-1-3-4-1-6-3v-2l-7-2z" fill="#9B4326"/>
<path transform="translate(840,211)" d="m0 0 10 2 13 4 1 2-8-1-16-5z" fill="#FBD77B"/>
<path transform="translate(848,652)" d="m0 0 4 1-16 4h-9v-2z" fill="#AC5129"/>
<path transform="translate(725,645)" d="m0 0 2 1 3 2 17 4 10 1v1h-11l-9-2-12-3z" fill="#C5742D"/>
<path transform="translate(779,703)" d="m0 0h2v2h-2v2l6-2v2h-2l-1 3-6 1-1-4h-2l1-3z" fill="#D2822C"/>
<path transform="translate(785,611)" d="m0 0h2v5l-4 1h-2l-2 1-6-2v-1l6-2z" fill="#B2592B"/>
<path transform="translate(798,610)" d="m0 0 3 1v7l-6 2-2-1 4-8z" fill="#B2592B"/>
<path transform="translate(808,664)" d="m0 0h12l6 2v1l-7-1h-9l-2 1-2 12h-1v-14z" fill="#A03E25"/>
<path transform="translate(762,700)" d="m0 0 4 2 4-2-1 5-1 3 3 2-1 4v-3l-4-2-3-3z" fill="#D98E2F"/>
<path transform="translate(846,414)" d="m0 0 3 1v2l-12 1-4 1-2-1v-2l3-1z" fill="#D6AB5A"/>
<path transform="translate(723,610)" d="m0 0h8l7 2v1l-10 2-5-3z" fill="#A85029"/>
<path transform="translate(744,530)" d="m0 0h5l-4 1-1 6h-2v-2h-2l1 2 5 1v1h-10l2-4z" fill="#CD7D2D"/>
<path transform="translate(888,464)" d="m0 0 8 6 2 1-1 4-2 3-1 11h-1v-12l2-4-7-7z" fill="#9B4326"/>
<path transform="translate(953,280)" d="m0 0 4 2 7 9 3 5-1 2-8-10-5-6z" fill="#FBD77B"/>
<path transform="translate(755,691)" d="m0 0h5v8h-5z" fill="#F9F40E"/>
<path transform="translate(727,421)" d="m0 0 6 3v4h-2l-1 2v-2l-3-1-1-5z" fill="#E8A93C"/>
<path transform="translate(976,350)" d="m0 0h1v18l-2 3h-2z" fill="#FDD56E"/>
<path transform="translate(707,415)" d="m0 0 2 2 1 4h9v3h-11l-1-1z" fill="#CF9A4B"/>
<path transform="translate(807,208)" d="m0 0h13v2l10 2v1l-12-1v-2l-11-1z" fill="#F7BE42"/>
<path transform="translate(711,648)" d="m0 0 10 1 3 3-3 1-10-3zm12 0 2 1-2 1z" fill="#AB5028"/>
<path transform="translate(766,432)" d="m0 0h10l4 2h-10l-4 1 3 4-5-2v-4z" fill="#D09446"/>
<path transform="translate(740,396)" d="m0 0 2 3-1 5-3 1-2 5-3-1z" fill="#DEB153"/>
<path transform="translate(722,398)" d="m0 0h2v7l-2 3-4-3z" fill="#F9C346"/>
<path transform="translate(587,302)" d="m0 0v3l-3 8-7 7 2-6 7-11z" fill="#AA4F28"/>
<path transform="translate(658,229)" d="m0 0h5l-3 1v2l-9 6-2 1 1-4 3-3h4z" fill="#AE5329"/>
<path transform="translate(890,624)" d="m0 0 3 1-4 4-7 2-2-2z" fill="#E2A035"/>
<path transform="translate(792,611)" d="m0 0 2 3 2-1-2 6-6-2-1-5 3 1v2h2z" fill="#A14827"/>
<path transform="translate(927,471)" d="m0 0h2l-2 4-5 3 3 1-1 3-5-6z" fill="#D9A44C"/>
<path transform="translate(766,685)" d="m0 0h3l-2 5-4 2-8-1v-1h6l1-2h3z" fill="#C5772F"/>
<path transform="translate(907,243)" d="m0 0 4 1 4 4v2h-4l-3-3-2-1z" fill="#F4BC46"/>
<path transform="translate(563,354)" d="m0 0h1v6l-4 7-1-4 3-8z" fill="#AB5028"/>
<path transform="translate(830,645)" d="m0 0 5 1-4 2-14 2v-2z" fill="#DB9D37"/>
<path transform="translate(1013,467)" d="m0 0h1v7l-2 8h-2l1-9z" fill="#B49F5B"/>
<path transform="translate(812,328)" d="m0 0 4 1-3 2-7 1 1 4-5-2v-2z" fill="#B65D2A"/>
<path transform="translate(917,613)" d="m0 0h2v2l-5 4-6 4-3-1 5-4h3l2-4z" fill="#C7752D"/>
<path transform="translate(841,533)" d="m0 0v3l-4 2 1 2h-8l3-3z" fill="#C4823E"/>
<path transform="translate(568,401)" d="m0 0h1v10l-2 9h-1v-10z" fill="#C7752D"/>
<path transform="translate(590,303)" d="m0 0 1 2-6 10h-2l2-6z" fill="#B49F5B"/>
<path transform="translate(817,680)" d="m0 0 3 1v8l-3 1z" fill="#81351F"/>
<path transform="translate(662,623)" d="m0 0 1 2 4 1 5 3-3 1-5-2-3-2z" fill="#AF5429"/>
<path transform="translate(654,608)" d="m0 0 5 1-2 5-4 2z" fill="#B6783B"/>
<path transform="translate(704,404)" d="m0 0 5 5-1 3-2 2-4-7v-2z" fill="#D8923A"/>
<path transform="translate(743,391)" d="m0 0h4l-1 5-5 2 1-5z" fill="#F0BB45"/>
<path transform="translate(826,367)" d="m0 0 1 4 5-3 3 1-7 6h-2z" fill="#B45D29"/>
<path transform="translate(673,364)" d="m0 0 3 3-6 5-6 3 2-5 6-2z" fill="#AA5C30"/>
<path transform="translate(846,356)" d="m0 0 9 1v2h-8l-5 3 2-5z" fill="#AE5428"/>
<path transform="translate(806,610)" d="m0 0h5v6l-4-1-2-1z" fill="#A1542C"/>
<path transform="translate(770,530)" d="m0 0 1 3h2l-1 3-3 2-5-1v-3l6 1z" fill="#AF5F2E"/>
<path transform="translate(590,533)" d="m0 0 3 1 2 4-1 1h-6z" fill="#B49150"/>
<path transform="translate(830,492)" d="m0 0h1v9l-5 4v-4l2-1z" fill="#E8AD41"/>
<path transform="translate(796,463)" d="m0 0 4 2-6 8-1-3 2-2v-3z" fill="#D79B45"/>
<path transform="translate(802,659)" d="m0 0h8l-2 2-4 1h-10v-1z" fill="#AD5229"/>
<path transform="translate(843,640)" d="m0 0m-5 1h5l1 2-8 2-4-1z" fill="#AE5429"/>
<path transform="translate(717,619)" d="m0 0 4 2 3 4-1 2-7-4z" fill="#A14827"/>
<path transform="translate(842,612)" d="m0 0 4 8v3l-3-1-1-5-4-1 3-1z" fill="#954024"/>
<path transform="translate(999,525)" d="m0 0 1 3-8 8-1-4h2v-2l4-2z" fill="#A24827"/>
<path transform="translate(699,390)" d="m0 0h2l1 6-2 1-2 3v-9z" fill="#A94427"/>
</svg>
